<svg width="91" height="32" viewBox="0 0 91 32" fill="none" xmlns="http://www.w3.org/2000/svg">
<path d="M15.0882 1.44118C11.3868 1.56463 7.88212 3.1376 5.32966 5.821C2.7772 8.50441 1.38139 12.0833 1.44313 15.7863C1.50486 19.4893 3.01919 23.0197 5.65968 25.6165C8.30017 28.2134 11.8553 29.6686 15.5588 29.6686C19.2623 29.6686 22.8175 28.2134 25.4579 25.6165C28.0984 23.0197 29.6128 19.4893 29.6745 15.7863C29.7362 12.0833 28.3404 8.50441 25.788 5.821C23.2355 3.1376 19.7308 1.56463 16.0294 1.44118H15.0882ZM34.8529 1.44118C31.1515 1.56463 27.6468 3.1376 25.0944 5.821C22.5419 8.50441 21.1461 12.0833 21.2078 15.7863C21.2696 19.4893 22.7839 23.0197 25.4244 25.6165C28.0649 28.2134 31.62 29.6686 35.3235 29.6686C39.027 29.6686 42.5822 28.2134 45.2227 25.6165C47.8631 23.0197 49.3775 19.4893 49.4392 15.7863C49.5009 12.0833 48.1051 8.50441 45.5527 5.821C43.0002 3.1376 39.4955 1.56463 35.7941 1.44118H34.8529ZM54.6176 1.44118C50.9162 1.56463 47.4115 3.1376 44.8591 5.821C42.3066 8.50441 40.9108 12.0833 40.9725 15.7863C41.0343 19.4893 42.5486 23.0197 45.1891 25.6165C47.8296 28.2134 51.3848 29.6686 55.0882 29.6686C58.7917 29.6686 62.3469 28.2134 64.9874 25.6165C67.6278 23.0197 69.1422 19.4893 69.2039 15.7863C69.2656 12.0833 67.8698 8.50441 65.3174 5.821C62.7649 3.1376 59.2602 1.56463 55.5588 1.44118H54.6176ZM74.3823 1.44118C70.6809 1.56463 67.1762 3.1376 64.6238 5.821C62.0713 8.50441 60.6755 12.0833 60.7372 15.7863C60.799 19.4893 62.3133 23.0197 64.9538 25.6165C67.5943 28.2134 71.1495 29.6686 74.8529 29.6686C78.5564 29.6686 82.1116 28.2134 84.7521 25.6165C87.3926 23.0197 88.9069 19.4893 88.9686 15.7863C89.0304 12.0833 87.6345 8.50441 85.0821 5.821C82.5296 3.1376 79.0249 1.56463 75.3235 1.44118H74.3823Z" stroke="black" stroke-width="2.88235"/>
</svg>
