<svg width="64" height="32" viewBox="0 0 64 32" fill="none" xmlns="http://www.w3.org/2000/svg">
<g clip-path="url(#clip0_601_667)">
<path d="M6.43096 6.23937C6.71671 5.59701 6.96215 5.07529 8.76022 5.07529H19.14C19.7124 5.07529 20.2841 4.79422 20.2841 3.99206V1.14365C20.2841 0.820696 20.6114 0.378777 21.4693 0.378777H42.9649C43.5775 0.378777 44.0686 0.700268 44.0686 1.46284V3.71099C44.0686 4.31271 44.3544 4.95486 45.2534 4.95486H62.4986C63.1112 4.95486 63.9286 5.11488 63.5612 5.87829C63.1929 6.64003 57.5948 17.7949 57.2151 18.5402C57.0694 18.8258 56.9559 19.2067 55.8224 19.2067H45.2216C44.719 19.2067 43.8934 19.2067 43.8934 20.1612V22.816C43.8934 23.1977 43.6025 23.7705 42.6795 23.7705H21.4114C20.7474 23.7705 20.262 23.4355 20.262 22.7842V20.4468C20.262 19.938 19.9865 19.1915 19.2098 19.1915H1.35687C0.789834 19.1915 0.255887 18.7619 0.595942 17.936C0.935996 17.1086 6.43096 6.23937 6.43096 6.23937Z" fill="#C7D6EE"/>
<path d="M1.96057 16.695L2.45676 16.6964L7.33462 7.16423L6.83822 7.16278L1.96057 16.695Z" fill="url(#paint0_linear_601_667)"/>
<path d="M19.252 18.0411H2.5548C1.97227 18.0411 1.76798 17.7798 1.99476 17.335C3.25909 14.8651 7.41675 6.74286 7.52451 6.52722C7.65095 6.27365 7.95706 5.96362 8.5224 5.96362H19.727C20.8893 5.96362 21.0874 5.46461 21.0874 4.56327V1.87883C21.0874 1.51775 21.3312 1.27773 21.7601 1.27773H42.282C42.8331 1.27773 43.0773 1.4567 43.0773 1.81778V3.8009C43.0773 4.58244 42.9269 5.84381 44.7003 5.84381H61.6579C62.4194 5.84381 62.6172 6.34824 62.2141 7.14665C60.7134 10.1199 57.0208 17.1695 56.906 17.4087C56.7605 17.7127 56.3089 17.9802 55.5874 17.9802H44.4564C43.538 17.9802 42.621 18.5811 42.621 19.4831V21.774C42.621 22.1913 42.3658 22.4869 41.912 22.4869H21.9994C21.3834 22.4869 21.1483 22.1442 21.1483 21.6871V19.6029C21.1483 18.8822 20.6589 18.0411 19.252 18.0411Z" fill="#E9CF98"/>
<path d="M41.5191 17.5033L43.8579 19.8975C43.8579 19.8975 44.0249 19.3727 44.6589 19.2425L42.0399 16.8428C42.0399 16.8428 41.6192 17.0766 41.5191 17.5033Z" fill="white"/>
<path d="M19.3063 19.2089C19.3063 19.2089 20.2419 19.2424 20.2419 20.4559L22.4129 17.306L21.8117 16.8793L19.3063 19.2089Z" fill="white"/>
<path d="M42.3823 7.28143L44.8484 4.92057C44.8484 4.92057 44.5141 4.88036 44.1791 4.34634L41.7338 6.7893L42.3823 7.28143Z" fill="white"/>
<path d="M41.3159 2.45776L43.5942 0.54944C43.5942 0.54944 43.8452 0.69258 43.9495 0.918853L41.5668 3.07407L41.3159 2.45776Z" fill="white"/>
<path d="M20.3003 1.24039C20.3003 0.845139 20.6741 0.378842 21.2861 0.378842L23.0146 2.4776C23.0146 2.4776 22.4972 2.4776 22.4159 2.66491C22.3336 2.85242 22.2522 3.25392 22.2522 3.25392L20.3003 1.24039Z" fill="white"/>
<path d="M19.5542 5.02048C19.5542 5.02048 20.2929 4.90547 20.2929 4.12997L22.0063 6.10996L20.9142 6.88525L19.5542 5.02048Z" fill="white"/>
<path d="M32.2237 0.378761L32.145 1.28156H42.0185C42.3424 1.28156 42.5246 1.36157 42.6468 1.60013L43.7402 0.645454C43.7402 0.645454 43.4655 0.378761 42.965 0.378761H32.2237Z" fill="url(#paint1_linear_601_667)"/>
<path d="M21.286 0.378762C21.0227 0.378762 20.7187 0.506692 20.5575 0.704837L21.266 1.46054C21.266 1.46054 21.4075 1.28156 21.9746 1.28156H32.145L32.2237 0.378762H21.286Z" fill="url(#paint2_linear_601_667)"/>
<path d="M20.3004 1.24051V3.99204C20.3004 4.42396 20.2123 4.52981 20.2123 4.52981L20.9941 5.34572C20.9941 5.34572 21.1059 5.06403 21.1059 4.89089V2.16457C21.1059 1.99246 21.1216 1.74161 21.1216 1.74161L20.3876 0.848807C20.3876 0.848807 20.3004 1.00487 20.3004 1.24051Z" fill="url(#paint3_linear_601_667)"/>
<path d="M43.0932 1.65785C43.0932 1.65785 43.072 1.97789 43.072 2.14999C43.072 2.32209 43.0932 4.64628 43.0932 4.81879C43.0932 4.9909 43.3484 5.31009 43.3484 5.31009L44.2839 4.49709C44.2839 4.49709 44.062 4.42396 44.062 3.99204V1.24051C44.062 1.00487 43.8658 0.848808 43.8658 0.848808L43.0932 1.65785Z" fill="url(#paint4_linear_601_667)"/>
<path d="M19.1992 5.0784C18.906 5.0784 8.83358 5.08986 8.29687 5.08986C7.51812 5.08986 7.06012 5.42718 7.06012 5.42718L7.70077 6.27373C7.70077 6.27373 7.95703 5.96349 8.52259 5.96349H19.8882C20.2841 5.96349 20.5815 5.78764 20.5815 5.78764L19.8388 4.91151C19.8388 4.91151 19.4741 5.0784 19.1992 5.0784Z" fill="url(#paint5_linear_601_667)"/>
<path d="M1.65954 17.4088L0.498097 18.2087C0.498097 18.2087 0.406028 18.5393 0.579555 18.8006C0.753507 19.0611 1.0191 19.1015 1.0191 19.1015L2.53078 18.041C2.53078 18.041 1.67524 18.0014 2.0312 17.379C2.38717 16.7567 2.36787 16.5221 2.36787 16.5221C2.36787 16.5221 1.9525 16.5891 1.65954 17.4088Z" fill="url(#paint6_linear_601_667)"/>
<path d="M4.84881 9.57531C3.92262 11.4476 0.811854 17.4621 0.703028 17.677C0.59399 17.8909 0.484741 18.2651 0.484741 18.2651L1.68352 17.4088L7.30068 6.41769C7.30068 6.41769 5.77521 7.70199 4.84881 9.57531Z" fill="url(#paint7_linear_601_667)"/>
<path d="M2.55478 18.067L1.01404 19.1556C1.01404 19.1556 18.5641 19.1982 19.0074 19.1982C19.4502 19.1982 19.6362 19.2813 19.6362 19.2813L20.4266 18.3991C20.4266 18.3991 19.6716 18.067 19.2522 18.067H2.55478Z" fill="url(#paint8_linear_601_667)"/>
<path d="M20.0864 19.7636C20.0864 19.7636 20.248 20.0826 20.248 20.3372V22.6164C20.248 22.9425 20.3774 23.2252 20.3774 23.2252L21.1485 22.3331V19.6028C21.1485 19.1671 20.9039 18.8006 20.9039 18.8006L20.0864 19.7636Z" fill="url(#paint9_linear_601_667)"/>
<path d="M42.6186 19.3209V22.0512L43.8286 23.091C43.8286 23.091 43.8587 22.8137 43.8587 22.4885V20.2083C43.8587 19.9541 43.9336 19.794 43.9336 19.794L42.8757 18.755C42.8757 18.755 42.6186 18.8844 42.6186 19.3209Z" fill="url(#paint10_linear_601_667)"/>
<path d="M41.7134 22.5068H32.1995V23.7751H42.7272C43.0851 23.7751 43.5024 23.5413 43.5817 23.4819L42.3886 22.3706C42.3886 22.3706 42.3099 22.5068 41.7134 22.5068Z" fill="url(#paint11_linear_601_667)"/>
<path d="M20.7401 23.6167C20.7401 23.6167 20.9851 23.7874 21.6699 23.7874C22.354 23.7874 32.1995 23.7751 32.1995 23.7751V22.5068H22.0377C21.8538 22.5068 21.7308 22.4733 21.7308 22.4733L20.7401 23.6167Z" fill="url(#paint12_linear_601_667)"/>
<path d="M23.4731 2.45168C22.922 2.45168 22.3717 2.75254 22.3717 3.35364V6.29811C22.3717 6.89838 22.0043 7.13902 21.5762 7.13902H9.39319C8.89828 7.13902 8.51537 7.34175 8.29538 7.75075C8.11528 8.08683 5.07282 14.076 4.08957 16.0116C3.87637 16.4314 4.06263 16.6867 4.60973 16.6867H21.6379C22.3717 16.6867 22.4943 17.348 22.4943 18.0085V20.2966C22.4943 20.7181 22.9222 21.1988 23.4118 21.1988H31.9781V2.45168H23.4731Z" fill="url(#paint13_linear_601_667)"/>
<path d="M43.4207 18.3183L44.4016 19.3086C44.4016 19.3086 44.6464 19.1754 45.7911 19.1754H56.2526C56.4701 19.1754 56.7698 19.0681 56.7698 19.0681L51.2398 17.9712C51.2398 17.9712 44.8374 17.9755 44.5378 17.9712C44.5266 17.9709 44.5153 17.9707 44.5041 17.9707C43.855 17.9707 43.4207 18.3183 43.4207 18.3183Z" fill="url(#paint14_linear_601_667)"/>
<path d="M43.7889 5.66867C43.7889 5.66867 44.2671 5.82556 44.6576 5.82556H61.1294C61.6307 5.82556 61.9232 5.86222 61.9232 5.86222L63.2544 5.08298C63.2544 5.08298 62.8271 4.96318 62.4001 4.96318H45.2934C44.866 4.96318 44.6878 4.86504 44.6878 4.86504L43.7889 5.66867Z" fill="url(#paint15_linear_601_667)"/>
<path d="M62.4086 6.28352C62.4086 6.28352 62.4839 6.69398 62.3416 6.97296C62.1996 7.25174 57.221 16.8688 56.9964 17.3105C56.7709 17.7518 56.263 17.9147 56.263 17.9147L56.8302 19.029C56.8302 19.029 57.0314 18.879 57.1499 18.7275C57.2681 18.5766 63.394 6.33373 63.5834 5.90431C63.7722 5.47448 63.6063 5.31905 63.6063 5.31905L62.4086 6.28352Z" fill="url(#paint16_linear_601_667)"/>
<path d="M55.7348 17.9976C55.081 17.9976 51.403 18.0251 51.403 18.0251L56.6336 19.0681C56.6336 19.0681 56.9607 18.9354 57.1243 18.6666C57.288 18.3991 57.1238 18.3191 56.9333 18.4793C56.7431 18.6408 56.4162 18.3733 56.5791 18.1858C56.7431 17.9976 56.906 17.4088 56.906 17.4088C56.906 17.4088 56.389 17.9976 55.7348 17.9976Z" fill="url(#paint17_linear_601_667)"/>
<path d="M7.07431 17.1696C3.64874 17.3942 2.55475 18.0303 2.55475 18.0303H18.913C20.7732 18.0303 20.5609 18.2801 20.5505 18.2914L21.8823 16.9081C21.8823 16.9081 18.6468 16.9081 16.5912 16.871C16.3298 16.8663 16.0366 16.864 15.7165 16.864C13.5194 16.864 10.0646 16.974 7.07431 17.1696ZM20.5501 18.2918C20.5501 18.2918 20.5503 18.2916 20.5505 18.2914L20.5501 18.2918Z" fill="url(#paint18_linear_601_667)"/>
<path d="M45.6579 16.8711C44.2024 16.9081 41.9109 16.9081 41.9109 16.9081L43.4381 18.3206C43.4381 18.3206 43.5952 17.9901 44.9427 17.9901C46.2911 17.9901 56.0073 17.9572 56.0073 17.9572C56.0073 17.9572 56.1711 17.4355 53.3102 17.235C51.0565 17.0769 47.6555 16.8671 46.0115 16.8671C45.8823 16.8671 45.7641 16.8683 45.6579 16.8711Z" fill="url(#paint19_linear_601_667)"/>
<path d="M42.1967 7.28674C42.1967 7.28674 44.4886 7.28674 45.9445 7.32404C47.3999 7.36133 56.2233 6.96837 58.6504 6.74377C61.0768 6.51958 61.8511 5.88368 61.8511 5.88368C61.8511 5.88368 46.4237 5.96452 45.0758 5.96452C43.7287 5.96452 43.9167 5.70221 43.9167 5.70221L42.1967 7.28674Z" fill="url(#paint20_linear_601_667)"/>
<path d="M20.9852 18.841C20.9852 18.841 21.1487 19.3621 21.1487 19.7636V21.5698C21.1487 22.0511 21.3125 22.2926 21.3125 22.2926L22.7018 20.9275C22.7018 20.9275 22.4943 20.4462 22.4943 20.0849V18.0487C22.4943 17.5778 22.3747 17.1948 22.3747 17.1948L20.9852 18.841Z" fill="url(#paint21_linear_601_667)"/>
<path d="M41.3717 18.0372C41.3717 18.5081 41.3392 19.768 41.3392 20.1299C41.3392 20.4901 41.2546 20.9275 41.2546 20.9275L42.6439 22.2926C42.6439 22.2926 42.8078 22.0511 42.8078 21.5698V19.7636C42.8078 19.3621 42.9714 18.841 42.9714 18.841L41.4835 17.1567C41.4835 17.1567 41.3717 17.5674 41.3717 18.0372Z" fill="url(#paint22_linear_601_667)"/>
<path d="M21.762 22.4527L31.8964 22.5327L31.9374 22.5318V21.1988L23.1104 21.1675L21.762 22.4527Z" fill="url(#paint23_linear_601_667)"/>
<path d="M31.9781 21.1988H31.9373V22.5318L42.3579 22.4131L40.6826 21.1675L31.9781 21.1988Z" fill="url(#paint24_linear_601_667)"/>
<path d="M21.8988 1.27406C21.6126 1.27406 21.3479 1.42553 21.3479 1.42553L22.6911 2.72358C22.6911 2.72358 22.8235 2.44168 23.7701 2.44168H31.9781V1.27406H21.8988Z" fill="url(#paint25_linear_601_667)"/>
<path d="M31.9781 1.27405V2.44167H40.1858C41.1324 2.44167 41.3284 2.84629 41.3284 2.84629L42.6712 1.54887C42.6712 1.54887 42.3437 1.27405 42.0575 1.27405H31.9781Z" fill="url(#paint26_linear_601_667)"/>
<path d="M21.0919 2.40813V4.76524C21.0919 5.04486 20.9669 5.37614 20.9669 5.37614L22.2824 6.84254C22.2824 6.84254 22.3713 6.72065 22.3713 6.10996C22.3713 5.49886 22.4243 3.10758 22.4243 3.10758L21.1093 1.65869C21.1093 1.65869 21.0919 2.04185 21.0919 2.40813Z" fill="url(#paint27_linear_601_667)"/>
<path d="M41.3834 3.13571V6.06642C41.3834 6.67732 41.6744 6.84254 41.6744 6.84254L43.282 5.25197C43.282 5.25197 43.0724 4.91922 43.0724 4.64044C43.0724 4.36083 43.0588 2.6567 43.0588 2.2902C43.0588 1.92371 43.0751 1.58472 43.0751 1.58472L41.3834 3.13571Z" fill="url(#paint28_linear_601_667)"/>
<path d="M20.0045 5.9962H8.72602C8.39912 5.9962 7.86751 6.11663 7.70416 6.27748L8.72602 7.32113C8.72602 7.32113 9.01177 7.12069 9.70673 7.12069H21.4347C21.762 7.12069 22.0885 6.99964 22.0885 6.99964L20.7813 5.67555C20.7813 5.67555 20.454 5.9962 20.0045 5.9962Z" fill="url(#paint29_linear_601_667)"/>
<path d="M55.1329 16.7308C55.1329 16.7308 55.7645 16.4977 55.962 17.2344C55.962 17.2344 56.1196 17.4676 56.5538 16.8465C56.9879 16.2266 61.0933 7.93202 61.0528 7.81471C61.0131 7.69887 60.1843 7.54343 60.1843 7.54343L55.1329 16.7308Z" fill="url(#paint30_linear_601_667)"/>
<path d="M60.3031 7.622C60.501 7.73784 60.6981 7.89327 60.4219 8.47437C60.1459 9.05484 56.9883 15.1027 56.3177 16.2652C55.6467 17.4278 56.2379 17.8932 56.2379 17.8932C56.2379 17.8932 56.7517 17.6601 56.906 17.4088C57.0615 17.1567 61.8825 7.77659 62.2143 7.14674C62.5462 6.51667 62.3159 6.26456 62.3159 6.26456L60.3031 7.622Z" fill="url(#paint31_linear_601_667)"/>
<path d="M31.9781 2.45168V21.1988H40.4181C40.9071 21.1988 41.3356 21.0183 41.3356 20.4766V17.6807C41.3356 17.14 41.7022 16.7202 42.1309 16.7202H54.8631C55.3101 16.7202 55.7113 16.4635 55.9442 16.0408C56.9845 14.1514 59.8498 8.67231 60.0666 8.2306C60.3312 7.69138 60.1674 7.37905 59.5541 7.37905H42.6814C41.9476 7.37905 41.3961 6.83879 41.3961 6.17768V3.11299C41.3961 2.69233 41.1517 2.45168 40.6012 2.45168H31.9781Z" fill="url(#paint32_linear_601_667)"/>
<path d="M2.41687 17.5086L4.05032 16.5358C4.05032 16.5358 3.86321 16.4558 4.15724 15.8776C4.45168 15.2994 7.20966 9.77637 7.20966 9.77637L6.59426 9.64552L2.41687 17.5086Z" fill="url(#paint33_linear_601_667)"/>
<path d="M2.26899 16.7933C1.86021 17.5161 1.94251 17.7966 1.94251 17.7966L2.92301 17.1544C2.92301 17.1544 7.29535 8.84627 7.74487 7.88263C8.1946 6.91962 7.52446 6.52729 7.52446 6.52729C7.52446 6.52729 2.67778 16.0712 2.26899 16.7933Z" fill="url(#paint34_linear_601_667)"/>
<path d="M2.9306 18.0647C2.86569 18.1074 2.2681 18.1797 2.15143 18.0647C2.03433 17.9505 1.83895 17.8613 1.99508 17.7334C2.15143 17.6053 4.07338 16.4833 4.07338 16.4833C4.07338 16.4833 3.84003 16.6106 5.81481 16.6106H21.6122C22.028 16.6106 22.4174 16.8908 22.4696 17.0698C22.5218 17.2488 22.4177 17.325 22.2878 17.2998C22.1584 17.274 21.8201 17.1719 21.7422 17.044C21.6644 16.9167 21.8462 16.8146 20.7027 16.8146C19.5595 16.8146 10.8295 16.9425 8.85514 17.1208C6.88037 17.2998 4.28127 17.1719 2.9306 18.0647Z" fill="white"/>
<path d="M61.2801 5.91707C61.3448 5.87519 61.943 5.80289 62.0597 5.91707C62.1764 6.03208 62.3718 6.12126 62.2156 6.24919C62.0597 6.37649 60.1371 7.49931 60.1371 7.49931C60.1371 7.49931 60.3703 7.37201 58.3959 7.37201H42.5981C42.1823 7.37201 41.7928 7.09177 41.7411 6.91279C41.6889 6.73361 41.7926 6.65673 41.922 6.68277C42.0527 6.70861 42.3902 6.8107 42.4685 6.9378C42.5463 7.06593 42.3641 7.16719 43.5078 7.16719C44.6514 7.16719 53.3804 7.0401 55.356 6.86175C57.3301 6.68277 59.9294 6.8107 61.2801 5.91707Z" fill="white"/>
<path d="M8.03112 7.39345C8.03112 7.2128 8.13315 6.87173 8.05169 6.77193C7.96981 6.67129 8.21504 6.55086 8.3786 6.65066C8.54194 6.7513 8.88921 6.83131 8.92994 6.91194C8.97088 6.99195 8.90957 7.19239 8.68492 7.27302C8.46006 7.35303 8.25577 7.53367 7.9085 8.27562C7.56102 9.01903 5.57882 12.7915 5.57882 12.7915C5.57882 12.7915 5.86521 12.1898 5.74259 12.1691C5.61998 12.1493 5.33423 12.6513 5.33423 12.6513L8.03112 7.39345Z" fill="white"/>
<path d="M21.693 7.0385C21.5239 7.05517 21.4766 6.87328 21.6209 6.84952C21.766 6.82577 21.9579 6.81452 22.1262 6.16383C22.2952 5.51335 22.175 3.53961 22.1506 3.1852C22.1262 2.83037 21.9582 2.40512 22.1991 2.21614C22.4395 2.02654 22.6081 2.42887 23.2342 2.42887C23.8597 2.42887 25.2802 2.38157 25.2802 2.38157C25.2802 2.38157 23.2823 2.52263 22.9448 2.57055C22.6079 2.61785 22.319 2.87746 22.3669 3.35063C22.4155 3.82359 22.2952 6.25905 22.1991 6.51887C22.1026 6.77868 21.9338 7.01475 21.693 7.0385Z" fill="white"/>
<path d="M35.1722 2.39611C34.9072 2.4082 40.2478 2.45778 40.5844 2.45778C40.9215 2.45778 41.3065 2.55821 41.3791 2.88887C41.4512 3.22036 41.4001 4.30526 41.4001 4.30526C41.4001 4.30526 41.566 2.91262 41.8068 2.6528C42.0473 2.39215 41.9752 2.01441 41.6623 2.08441C41.3492 2.15609 38.8708 2.23234 35.1722 2.39611Z" fill="white"/>
<path d="M42.3041 16.89C42.136 16.8657 41.9439 16.8428 41.8953 16.9844C41.8471 17.1253 42.1112 17.2199 41.8471 17.3607C41.5836 17.5024 41.3872 17.5893 41.3872 17.4714C41.3872 17.3532 41.5234 16.7475 42.0279 16.7475C42.5321 16.7475 54.9805 16.724 55.1737 16.724C55.3651 16.724 55.6056 16.7475 55.7013 16.9365C55.7972 17.1253 55.9171 17.597 55.9896 17.7387C56.0613 17.8804 55.9415 17.8804 55.7251 17.597C55.5091 17.3136 54.9571 17.1963 54.5252 17.2199C54.0927 17.2434 42.3041 16.89 42.3041 16.89Z" fill="white"/>
<path d="M56.0373 17.2907C56.0373 17.2907 55.9174 17.0317 55.8453 16.8657C55.7732 16.7011 55.5574 16.631 55.5574 16.631C55.5574 16.631 55.7971 16.3468 56.1332 15.7343C56.4696 15.1219 58.0543 12.1966 58.2223 11.7958C58.2223 11.7958 57.8619 12.8815 58.5585 11.9847C58.5585 11.9847 56.3014 16.1816 56.1571 16.465C56.0135 16.7483 56.0373 17.2907 56.0373 17.2907Z" fill="white"/>
<path d="M22.6439 20.5916C22.6439 20.5916 22.6725 20.9306 22.472 21.0714C22.2711 21.2125 22.185 21.4661 22.3573 21.579C22.5295 21.6917 22.6443 21.6352 22.759 21.4661C22.8738 21.2971 23.276 21.156 23.5342 21.2125C23.5342 21.2125 22.6439 21.3244 22.6439 20.5916Z" fill="white"/>
<path d="M35.0175 21.1957C35.0175 21.1957 39.8626 21.4464 40.1497 21.4593C40.4358 21.4722 40.6376 21.4814 40.6376 21.4814C40.6376 21.4814 40.1234 21.4014 40.2755 21.2391L35.0175 21.1957Z" fill="white"/>
<path d="M40.7602 21.1561C40.7602 21.1561 40.6168 21.3816 40.8463 21.4937C41.0763 21.6064 41.3062 21.7191 41.4496 21.5499C41.5928 21.3809 41.3349 20.9299 41.3633 20.6198C41.3633 20.6198 41.4781 21.0997 40.7602 21.1561Z" fill="white"/>
<path d="M46.6697 21.5644H46.4013V22.0109H46.6697C46.8063 22.0109 46.8468 21.9576 46.8468 21.8698V21.7046C46.8468 21.5919 46.7933 21.5644 46.6697 21.5644ZM46.6697 22.1555H46.4013V22.5228H46.238V21.4173H46.6697C46.914 21.4173 47.0101 21.524 47.0101 21.7046V21.8698C47.0101 21.9896 46.9679 22.0703 46.8468 22.1236L47.1497 22.5228H46.9563L46.6697 22.1555ZM46.6194 22.8595C47.1956 22.8595 47.4981 22.4716 47.4981 21.9955C47.4981 21.5194 47.1956 21.1256 46.6194 21.1256C46.0426 21.1256 45.7331 21.5194 45.7331 21.9955C45.7331 22.4716 46.0426 22.8595 46.6194 22.8595ZM46.6194 20.9793C47.2579 20.9793 47.6478 21.4327 47.6478 21.9934C47.6478 22.5464 47.2579 23.0064 46.6194 23.0064C45.977 23.0064 45.5837 22.5464 45.5837 21.9934C45.5837 21.4327 45.977 20.9793 46.6194 20.9793Z" fill="black"/>
<path d="M13.7757 28.2671H11.9929V26.0386H10.2725V31.5788H11.9929V29.1899H13.7757V31.5788H15.4979V26.0386H13.7757V28.2671Z" fill="black"/>
<path d="M45.4266 30.6566V26.0384H43.7056V31.5786H47.8895V30.6566H45.4266Z" fill="black"/>
<path d="M55.2106 26.0385V26.9624H56.7767V31.5787H58.4969V26.9624H60.0643V26.0385H55.2106Z" fill="black"/>
<path d="M4.06433 27.1919C4.06433 26.4995 4.49019 26.0384 5.12897 26.0384H8.58014V26.9615H6.10592C5.91354 26.9615 5.78704 27.1014 5.78704 27.3082V30.3088C5.78704 30.5172 5.91354 30.6566 6.10592 30.6566H8.58014V31.5786H5.12897C4.49019 31.5786 4.06433 31.1164 4.06433 30.4248V27.1919Z" fill="black"/>
<path d="M33.9984 29.3312L35.4861 31.5788H33.6567L32.3396 29.2934V28.5712H33.0505C33.2421 28.5712 33.3696 28.4309 33.3696 28.2244V27.3084C33.3696 27.1016 33.2421 26.9625 33.0505 26.9625H31.8466V31.5788H30.1246V26.0386H34.0267C34.6675 26.0386 35.0911 26.4997 35.0911 27.1921L35.0928 28.3119C35.0928 28.922 34.7178 29.3312 34.1527 29.3312H33.9984Z" fill="black"/>
<path d="M39.9646 30.6566C40.155 30.6566 40.2832 30.5175 40.2832 30.3099V27.3083C40.2832 27.1017 40.155 26.9615 39.9646 26.9615H38.7642C38.5728 26.9615 38.4443 27.1017 38.4443 27.3083V30.3099C38.4443 30.5175 38.5728 30.6566 38.7642 30.6566H39.9646ZM36.7233 27.192C36.7233 26.4996 37.1477 26.0384 37.787 26.0384H40.9405C41.5788 26.0384 42.0057 26.4996 42.0057 27.192V30.4251C42.0057 31.1167 41.5788 31.5786 40.9405 31.5786H37.787C37.1477 31.5786 36.7233 31.1167 36.7233 30.4251V27.192Z" fill="black"/>
<path d="M23.1563 26.0385H25.0023L26.1037 30.3216C26.112 30.3605 26.1403 30.3833 26.1801 30.3833C26.2192 30.3833 26.2498 30.3605 26.257 30.3216L27.3279 26.0385H28.7726L27.4381 30.7928C27.2766 31.3341 26.9847 31.5787 26.372 31.5787H25.513C25.119 31.5787 24.7976 31.379 24.6045 30.7888L23.1563 26.0385Z" fill="black"/>
<path d="M18.9588 30.4817C18.9588 30.588 19.0224 30.6556 19.1191 30.6556H21.9478V31.5787H18.3012C17.6627 31.5787 17.2374 31.1165 17.2374 30.426V27.1921C17.2374 26.4997 17.6627 26.0385 18.3012 26.0385H21.9478V26.9624H19.1191C19.0224 26.9624 18.9588 27.0312 18.9588 27.1355V28.2662H21.6232V29.1902H18.9588V30.4817Z" fill="black"/>
<path d="M50.8102 30.4817C50.8102 30.588 50.8733 30.6556 50.9682 30.6556H53.7984V31.5787H50.1516C49.5133 31.5787 49.0854 31.1165 49.0854 30.426V27.1921C49.0854 26.4997 49.5133 26.0385 50.1516 26.0385H53.7984V26.9624H50.9682C50.8733 26.9624 50.8102 27.0312 50.8102 27.1355V28.2662H53.4727V29.1902H50.8102V30.4817Z" fill="black"/>
</g>
<defs>
<linearGradient id="paint0_linear_601_667" x1="7.00327" y1="7.32579" x2="6.97827" y2="16.7476" gradientUnits="userSpaceOnUse">
<stop stop-color="#C7D6EE"/>
<stop offset="0.185394" stop-color="#91AFC8"/>
<stop offset="1" stop-color="#002334"/>
</linearGradient>
<linearGradient id="paint1_linear_601_667" x1="34.7855" y1="-2.13733" x2="40.5734" y2="3.7557" gradientUnits="userSpaceOnUse">
<stop stop-color="#E1E8F5"/>
<stop offset="0.89888" stop-color="#92A5C1"/>
<stop offset="0.955063" stop-color="#476886"/>
<stop offset="1" stop-color="#E1E8F5"/>
</linearGradient>
<linearGradient id="paint2_linear_601_667" x1="23.5693" y1="3.72273" x2="29.4903" y2="-2.30582" gradientUnits="userSpaceOnUse">
<stop stop-color="#E1E8F5"/>
<stop offset="0.0393219" stop-color="#476886"/>
<stop offset="0.0898895" stop-color="#92A5C1"/>
<stop offset="1" stop-color="#E1E8F5"/>
</linearGradient>
<linearGradient id="paint3_linear_601_667" x1="19.7074" y1="3.99813" x2="21.6377" y2="2.16542" gradientUnits="userSpaceOnUse">
<stop stop-color="#E1E8F5"/>
<stop offset="0.157303" stop-color="#C7D6EE"/>
<stop offset="1" stop-color="#E1E8F5"/>
</linearGradient>
<linearGradient id="paint4_linear_601_667" x1="44.6893" y1="4.07016" x2="42.6454" y2="2.12964" gradientUnits="userSpaceOnUse">
<stop stop-color="#E1E8F5"/>
<stop offset="0.157303" stop-color="#C7D6EE"/>
<stop offset="1" stop-color="#E1E8F5"/>
</linearGradient>
<linearGradient id="paint5_linear_601_667" x1="10.4216" y1="8.94603" x2="17.0625" y2="2.18461" gradientUnits="userSpaceOnUse">
<stop stop-color="#476886"/>
<stop offset="0.129211" stop-color="#92A5C1"/>
<stop offset="1" stop-color="#E1E8F5"/>
</linearGradient>
<linearGradient id="paint6_linear_601_667" x1="1.94855" y1="18.3277" x2="1.17509" y2="17.203" gradientUnits="userSpaceOnUse">
<stop stop-color="#002334"/>
<stop offset="0.106735" stop-color="white"/>
<stop offset="0.185394" stop-color="#91AFC8"/>
<stop offset="0.241577" stop-color="#002334"/>
<stop offset="0.533707" stop-color="#5E738F"/>
<stop offset="0.758423" stop-color="#002334"/>
<stop offset="1" stop-color="#002334"/>
</linearGradient>
<linearGradient id="paint7_linear_601_667" x1="7.60736" y1="10.4846" x2="1.55034" y2="13.6231" gradientUnits="userSpaceOnUse">
<stop stop-color="#91AFC8"/>
<stop offset="1" stop-color="#002334"/>
</linearGradient>
<linearGradient id="paint8_linear_601_667" x1="10.9282" y1="19.9345" x2="10.4764" y2="17.3256" gradientUnits="userSpaceOnUse">
<stop stop-color="#A5B9CC"/>
<stop offset="1" stop-color="#002334"/>
</linearGradient>
<linearGradient id="paint9_linear_601_667" x1="20.2779" y1="21.0129" x2="21.0553" y2="21.0129" gradientUnits="userSpaceOnUse">
<stop stop-color="#5E738F"/>
<stop offset="0.48877" stop-color="#91AFC8"/>
<stop offset="1" stop-color="#91AFC8"/>
</linearGradient>
<linearGradient id="paint10_linear_601_667" x1="43.6964" y1="20.9229" x2="42.7338" y2="20.9229" gradientUnits="userSpaceOnUse">
<stop stop-color="#5E738F"/>
<stop offset="0.320221" stop-color="#91AFC8"/>
<stop offset="1" stop-color="#91AFC8"/>
</linearGradient>
<linearGradient id="paint11_linear_601_667" x1="36.4644" y1="25.4206" x2="39.027" y2="20.9015" gradientUnits="userSpaceOnUse">
<stop stop-color="#A5B9CC"/>
<stop offset="1" stop-color="#002334"/>
</linearGradient>
<linearGradient id="paint12_linear_601_667" x1="25.3691" y1="21.1891" x2="27.9515" y2="25.7432" gradientUnits="userSpaceOnUse">
<stop stop-color="#002334"/>
<stop offset="0.775284" stop-color="#A5B9CC"/>
<stop offset="1" stop-color="#A5B9CC"/>
</linearGradient>
<linearGradient id="paint13_linear_601_667" x1="14.8271" y1="4.04717" x2="26.3598" y2="24.3849" gradientUnits="userSpaceOnUse">
<stop stop-color="#FFEFCF"/>
<stop offset="0.460678" stop-color="#FFE4A6"/>
<stop offset="1" stop-color="#BC956E"/>
</linearGradient>
<linearGradient id="paint14_linear_601_667" x1="47.8309" y1="21.1721" x2="51.0885" y2="17.475" gradientUnits="userSpaceOnUse">
<stop stop-color="#5E738F"/>
<stop offset="0.606735" stop-color="#91AFC8"/>
<stop offset="1" stop-color="#C7DFF4"/>
</linearGradient>
<linearGradient id="paint15_linear_601_667" x1="51.1514" y1="1.34343" x2="55.4461" y2="8.91705" gradientUnits="userSpaceOnUse">
<stop stop-color="#E1E8F5"/>
<stop offset="0.814606" stop-color="#7F97B4"/>
<stop offset="0.904495" stop-color="#476886"/>
<stop offset="1" stop-color="#002334"/>
</linearGradient>
<linearGradient id="paint16_linear_601_667" x1="56.2691" y1="18.4775" x2="63.268" y2="6.13499" gradientUnits="userSpaceOnUse">
<stop stop-color="#8CA0B5"/>
<stop offset="0.140442" stop-color="#E1E8F5"/>
<stop offset="0.814606" stop-color="#7F97B4"/>
<stop offset="0.904495" stop-color="#476886"/>
<stop offset="1" stop-color="#002334"/>
</linearGradient>
<linearGradient id="paint17_linear_601_667" x1="53.7821" y1="18.6841" x2="56.3061" y2="17.2005" gradientUnits="userSpaceOnUse">
<stop stop-color="#002334"/>
<stop offset="0.814606" stop-color="#A5B9CC"/>
<stop offset="0.887634" stop-color="#002334"/>
<stop offset="1" stop-color="#002334"/>
</linearGradient>
<linearGradient id="paint18_linear_601_667" x1="7.87417" y1="13.2024" x2="16.0551" y2="21.5319" gradientUnits="userSpaceOnUse">
<stop stop-color="#D4BC7B"/>
<stop offset="0.331467" stop-color="#7F5F39"/>
<stop offset="1" stop-color="#D4BC7B"/>
</linearGradient>
<linearGradient id="paint19_linear_601_667" x1="52.0794" y1="14.368" x2="46.2359" y2="20.3176" gradientUnits="userSpaceOnUse">
<stop stop-color="#D4BC7B"/>
<stop offset="0.331467" stop-color="#7F5F39"/>
<stop offset="1" stop-color="#D4BC7B"/>
</linearGradient>
<linearGradient id="paint20_linear_601_667" x1="57.0615" y1="1.63725" x2="47.6164" y2="11.2538" gradientUnits="userSpaceOnUse">
<stop stop-color="#D4BC7B"/>
<stop offset="0.331467" stop-color="#7F5F39"/>
<stop offset="1" stop-color="#D4BC7B"/>
</linearGradient>
<linearGradient id="paint21_linear_601_667" x1="21.2949" y1="19.7437" x2="22.5512" y2="19.7437" gradientUnits="userSpaceOnUse">
<stop stop-color="#D3BD8B"/>
<stop offset="1" stop-color="#7F5F39"/>
</linearGradient>
<linearGradient id="paint22_linear_601_667" x1="42.6616" y1="19.7247" x2="41.4051" y2="19.7247" gradientUnits="userSpaceOnUse">
<stop stop-color="#D3BD8B"/>
<stop offset="1" stop-color="#7F5F39"/>
</linearGradient>
<linearGradient id="paint23_linear_601_667" x1="25.9272" y1="20.2564" x2="28.1999" y2="24.2642" gradientUnits="userSpaceOnUse">
<stop stop-color="#7F5F39"/>
<stop offset="0.646072" stop-color="#D3BD8B"/>
<stop offset="0.887634" stop-color="#FFE4A6"/>
<stop offset="1" stop-color="#FFE4A6"/>
</linearGradient>
<linearGradient id="paint24_linear_601_667" x1="38.0469" y1="20.2761" x2="35.5642" y2="24.6544" gradientUnits="userSpaceOnUse">
<stop stop-color="#7F5F39"/>
<stop offset="0.455063" stop-color="#D3BD8B"/>
<stop offset="0.887634" stop-color="#FFE4A6"/>
<stop offset="1" stop-color="#FFE4A6"/>
</linearGradient>
<linearGradient id="paint25_linear_601_667" x1="24.2642" y1="4.28991" x2="29.5595" y2="-1.10155" gradientUnits="userSpaceOnUse">
<stop stop-color="#D4BC7B"/>
<stop offset="0.0393219" stop-color="#7F5F39"/>
<stop offset="0.106735" stop-color="#D1AC75"/>
<stop offset="1" stop-color="#D4BC7B"/>
</linearGradient>
<linearGradient id="paint26_linear_601_667" x1="39.7707" y1="4.39783" x2="34.3828" y2="-1.08782" gradientUnits="userSpaceOnUse">
<stop stop-color="#D4BC7B"/>
<stop offset="0.0393219" stop-color="#7F5F39"/>
<stop offset="0.106735" stop-color="#D1AC75"/>
<stop offset="1" stop-color="#D4BC7B"/>
</linearGradient>
<linearGradient id="paint27_linear_601_667" x1="20.6933" y1="5.1689" x2="22.6648" y2="3.29704" gradientUnits="userSpaceOnUse">
<stop stop-color="#FFE292"/>
<stop offset="0.157303" stop-color="#D1AC75"/>
<stop offset="1" stop-color="#FFE292"/>
</linearGradient>
<linearGradient id="paint28_linear_601_667" x1="43.3857" y1="5.14286" x2="41.3304" y2="3.19151" gradientUnits="userSpaceOnUse">
<stop stop-color="#FFE292"/>
<stop offset="0.157303" stop-color="#D1AC75"/>
<stop offset="1" stop-color="#FFE292"/>
</linearGradient>
<linearGradient id="paint29_linear_601_667" x1="11.6154" y1="9.86126" x2="17.7666" y2="3.59836" gradientUnits="userSpaceOnUse">
<stop stop-color="#7F5F39"/>
<stop offset="1" stop-color="#BD9B6A"/>
</linearGradient>
<linearGradient id="paint30_linear_601_667" x1="56.7977" y1="10.9976" x2="59.4148" y2="13.6622" gradientUnits="userSpaceOnUse">
<stop stop-color="#7F5F39"/>
<stop offset="1" stop-color="#D4BC7B"/>
</linearGradient>
<linearGradient id="paint31_linear_601_667" x1="55.913" y1="17.6097" x2="61.6286" y2="6.40066" gradientUnits="userSpaceOnUse">
<stop stop-color="#A78A5E"/>
<stop offset="0.764038" stop-color="#7F5F39"/>
<stop offset="0.915726" stop-color="#674C2B"/>
<stop offset="1" stop-color="#674C2B"/>
</linearGradient>
<linearGradient id="paint32_linear_601_667" x1="50.9675" y1="20.1421" x2="34.6044" y2="0.287404" gradientUnits="userSpaceOnUse">
<stop stop-color="#FFEFCF"/>
<stop offset="0.460678" stop-color="#FFE4A6"/>
<stop offset="1" stop-color="#BC956E"/>
</linearGradient>
<linearGradient id="paint33_linear_601_667" x1="1.76055" y1="16.5889" x2="7.43467" y2="10.8118" gradientUnits="userSpaceOnUse">
<stop stop-color="#7F5F39"/>
<stop offset="1" stop-color="#E9CF98"/>
</linearGradient>
<linearGradient id="paint34_linear_601_667" x1="0.739423" y1="16.245" x2="8.38043" y2="8.46534" gradientUnits="userSpaceOnUse">
<stop stop-color="#7F5F39"/>
<stop offset="1" stop-color="#E4CB90"/>
</linearGradient>
<clipPath id="clip0_601_667">
<rect width="64" height="32" fill="white"/>
</clipPath>
</defs>
</svg>
