<svg width="32" height="32" viewBox="0 0 32 32" fill="none" xmlns="http://www.w3.org/2000/svg">
<g clip-path="url(#clip0_601_24741)">
<path fill-rule="evenodd" clip-rule="evenodd" d="M23.0544 2.5236C27.894 5.0688 31.2 10.1432 31.2 15.9924C31.2 21.8416 27.894 26.932 23.0544 29.4616V27.7224C24.9052 26.6152 26.4708 25.066 27.61 23.2324L23.0544 21.3832V18.5692L28.0524 22.474C29.0964 20.5452 29.6816 18.3476 29.6816 15.992C29.6816 11.028 27.024 6.6652 23.0544 4.262V2.5236ZM16.016 0.8004C18.5469 0.8004 20.9348 1.4172 23.0544 2.5236V4.2628C21.1088 3.0924 18.8312 2.3972 16.4272 2.318L18.1668 14.7596L23.0544 18.5696V21.3836L15.984 18.522L8.96125 21.3992V18.6008L13.8804 14.7592L15.6044 2.3176C13.1684 2.3968 10.9068 3.0924 8.96125 4.262V2.5236C11.0652 1.4172 13.4692 0.8004 16.016 0.8004ZM23.0544 29.4616C20.9348 30.568 18.5464 31.2 16.016 31.2C13.4696 31.2 11.0656 30.568 8.96165 29.4772V27.7224C11.018 28.9708 13.4376 29.6824 16.016 29.6824C18.5784 29.6824 20.9828 28.9708 23.0544 27.7224V29.4616ZM8.96165 29.4772C4.10565 26.932 0.800049 21.8416 0.800049 15.9924C0.800049 10.1432 4.10565 5.0688 8.96165 2.5236V4.2628C4.97565 6.6656 2.31845 11.0128 2.31845 15.9924C2.31845 18.3476 2.91965 20.5772 3.96365 22.5056L8.96165 18.6008V21.3992L4.42205 23.264C5.56085 25.0828 7.11085 26.6156 8.96165 27.7224V29.4772Z" fill="black"/>
</g>
<defs>
<clipPath id="clip0_601_24741">
<rect width="32" height="32" fill="white"/>
</clipPath>
</defs>
</svg>
